<svg version="1.1" xmlns="http://www.w3.org/2000/svg" xmlns:xlink="http://www.w3.org/1999/xlink" x="0px" y="0px" viewBox="0 0 1920 1080" style="enable-background:new 0 0 1920 1080;" xml:space="preserve">
    <style>text {font-size: 56px;font-family:Helvetica;}</style>
    <style>#background {opacity: 0;}</style>
    <rect x="0" y="0" width="1920" height="1080" fill="white"/>
    <text transform="matrix(1 0 0 1 1000 600)" fill="#1D1D1B">Company</text>
    <text transform="matrix(1 0 0 1 1000 690)" fill="#1D1D1B">511 Avenue of the Americas</text>
    <text transform="matrix(1 0 0 1 1000 780)" fill="#1D1D1B">New York, NY 10011-8436</text>

    <text transform="matrix(1 0 0 1 1000 900)" fill="#1D1D1B">+7 999 123-45-67</text>
    <text transform="matrix(1 0 0 1 1000 980)" fill="#1D1D1B">companyname.com</text>

    <text transform="matrix(1 0 0 1 200 150)" fill="#1D1D1B" font-weight="bold">Nikolay Ironov</text>
    <text transform="matrix(1 0 0 1 200 220)" fill="#1D1D1B">Designer</text>
    <text transform="matrix(1 0 0 1 1000 150)" fill="#1D1D1B">+7 999 123-45-67</text>
    <text transform="matrix(1 0 0 1 1000 220)" fill="#1D1D1B">ironov@companyname.com</text>

    <g transform="translate(50, 400) scale(2)">
    	<g fill="none" fill-rule="nonzero" stroke="none" stroke-width="none" stroke-linecap="none" stroke-linejoin="none" stroke-miterlimit="10" stroke-dasharray="" stroke-dashoffset="0" font-family="none" font-weight="none" font-size="none" text-anchor="none" style="mix-blend-mode: normal"><g><g><g id="symbol"><g><g id="construct"><g stroke-width="1"><rect x="-511.31382" y="554.86523" transform="rotate(-64) scale(0.36067,0.32981)" width="512" height="512" fill="none" stroke="none" stroke-linecap="butt" stroke-linejoin="miter"/><g id="Layer_3" fill="#f09dc1" stroke-opacity="0" stroke="#000000" stroke-linecap="round" stroke-linejoin="round"><path d="M162.65994,181.7891l20.58319,15.45251l24.84903,6.70625l-20.58319,-15.45251z"/></g></g><g><rect x="741.04913" y="741.04856" transform="scale(0.2006,0.2006)" width="512" height="512" fill="none" stroke="none" stroke-width="1" stroke-linecap="butt" stroke-linejoin="miter"/><g id="Layer_4" fill-opacity="0" fill="#000000" stroke="#fd2e97" stroke-width="5" stroke-linecap="round" stroke-linejoin="round"><rect x="969.00913" y="745.33856" transform="scale(0.2006,0.2006)" width="56.08" height="56.08"/><rect x="-1025.08856" y="745.33913" transform="rotate(-90) scale(0.2006,0.2006) skewX(0)" width="56.08" height="56.08"/><rect x="-1025.08913" y="-1248.75856" transform="rotate(-180) scale(0.2006,0.2006) skewX(0)" width="56.08" height="56.08"/><rect x="969.00856" y="-1248.75913" transform="rotate(90) scale(0.2006,0.2006) skewX(0)" width="56.08" height="56.08"/></g></g></g></g></g></g></g><g id="text" fill="#000000" stroke="none" stroke-width="1" stroke-linecap="butt" stroke-linejoin="miter"><g><path d="M137.59844,191.83448v0c0.95002,0.01636 1.77484,0.02726 2.47446,0.03272c0.69962,0.01091 1.32192,0.01636 1.86689,0.01636c0.54497,0 1.03839,0 1.48026,0c0.44187,0 0.87269,0 1.29246,0v0c0.58179,0 1.24828,0 1.99945,0c0.75854,0 1.50235,0 2.23143,0c0.73645,0 1.40661,-0.00545 2.0105,-0.01636c0.60389,-0.00545 1.04575,-0.01636 1.3256,-0.03272v0c-0.30931,0.58344 -0.66648,1.24866 -1.07153,1.99568c-0.40505,0.75247 -0.79168,1.42042 -1.1599,2.00386v0c-0.95738,0.03272 -2.15042,0.05725 -3.57913,0.07361c-1.42871,0.02181 -2.89792,0.03272 -4.40763,0.03272v0c-0.16202,0.61615 -0.29826,1.23503 -0.40873,1.85663c-0.1031,0.61615 -0.17675,1.12325 -0.22093,1.52129v0c1.20777,0 2.49287,-0.02181 3.8553,-0.06543c1.35506,-0.04362 2.59229,-0.08179 3.71169,-0.11451v0c-0.46396,0.87788 -0.90215,1.61672 -1.31456,2.21651c-0.40505,0.60525 -0.80273,1.15597 -1.19304,1.65216v0c-0.3314,0.03817 -0.69226,0.06543 -1.08258,0.08179v0c-0.37559,0.03272 -0.78432,0.05725 -1.22618,0.07361c-0.44187,0.01636 -0.92792,0.02454 -1.45816,0.02454v0c-0.32404,0 -0.59652,0 -0.81746,0c-0.22093,0 -0.40136,-0.00818 -0.54129,-0.02454v0c-0.16202,0 -0.2909,0 -0.38663,0v0c-0.04419,0.46348 -0.08101,1.07418 -0.11047,1.8321c-0.02209,0.75792 -0.03314,1.584 -0.03314,2.47824v0v2.63364l-5.3687,0.02454v-2.70725c0,-0.77428 0.0405,-1.82392 0.12151,-3.14892c0.08101,-1.325 0.20989,-2.72633 0.38663,-4.20401c0.17675,-1.48313 0.39768,-2.95535 0.6628,-4.41666c0.26512,-1.46132 0.58548,-2.73451 0.96106,-3.81959zM158.37729,198.13231v0c1.11203,0 2.03996,0.12814 2.78377,0.38441c0.74381,0.26173 1.34402,0.60525 1.80061,1.03055c0.44923,0.43076 0.76959,0.92968 0.96106,1.49676c0.18411,0.57253 0.27617,1.17505 0.27617,1.80756v0c0,0.84516 -0.17307,1.70669 -0.5192,2.58456c-0.35349,0.87788 -0.88374,1.67942 -1.59073,2.40463c-0.70699,0.71975 -1.58336,1.30864 -2.62912,1.76666c-1.04575,0.45257 -2.26826,0.67886 -3.66751,0.67886v0c-0.95002,0 -1.79693,-0.10633 -2.54074,-0.31898c-0.74381,-0.21811 -1.36611,-0.51528 -1.86689,-0.89151c-0.50078,-0.37623 -0.88374,-0.82881 -1.14886,-1.35771c-0.26512,-0.52346 -0.39768,-1.08508 -0.39768,-1.68487v0c0,-0.93241 0.18411,-1.86754 0.55234,-2.8054c0.37559,-0.93786 0.92056,-1.78575 1.63491,-2.54367c0.72172,-0.75792 1.61282,-1.37135 2.6733,-1.84028c1.05312,-0.47438 2.2793,-0.71157 3.67855,-0.71157zM156.07957,207.01471v0c0.36822,0 0.74013,-0.13359 1.11572,-0.40077c0.36822,-0.26718 0.70331,-0.61343 1.00525,-1.03873c0.30194,-0.41986 0.54497,-0.89969 0.72908,-1.4395c0.19148,-0.54527 0.28721,-1.09326 0.28721,-1.64398v0c0,-0.32716 -0.10678,-0.57253 -0.32035,-0.73611c-0.20621,-0.16358 -0.48605,-0.24537 -0.83955,-0.24537v0c-0.41241,0 -0.81746,0.14177 -1.21514,0.42531c-0.39768,0.28354 -0.74749,0.64069 -1.04944,1.07145c-0.30194,0.43076 -0.53761,0.90514 -0.70699,1.42315c-0.17675,0.518 -0.26512,1.00056 -0.26512,1.44768v0c0,0.75792 0.41977,1.13688 1.25932,1.13688zM165.76753,198.28771l5.22509,-0.49074c0.19148,0.55072 0.36086,1.27592 0.50815,2.17561c0.15465,0.90514 0.23198,1.79665 0.23198,2.67453v0c0,0.19084 -0.00736,0.38169 -0.02209,0.57253c-0.01473,0.18539 -0.03314,0.37351 -0.05523,0.56435v0h0.14361c0.30194,-0.55072 0.68121,-1.16687 1.13781,-1.84845c0.44923,-0.67613 0.9537,-1.31682 1.5134,-1.92207c0.5597,-0.59979 1.17095,-1.10144 1.83375,-1.50494c0.65544,-0.40895 1.34402,-0.61343 2.06573,-0.61343v0c0.30194,0 0.6002,0.04907 0.89478,0.14722c0.28721,0.0927 0.54865,0.26718 0.78432,0.52346c0.2283,0.26173 0.41977,0.61615 0.57443,1.06327c0.14729,0.44712 0.22093,1.02238 0.22093,1.72577v0c0,0.53436 -0.02946,1.01692 -0.08837,1.44768c-0.05155,0.43076 -0.09206,0.7143 -0.12151,0.85062v0h0.14361c0.30194,-0.65432 0.66648,-1.31137 1.09362,-1.97114c0.4345,-0.66523 0.92424,-1.26502 1.46921,-1.79938c0.54497,-0.52891 1.14517,-0.95694 1.80061,-1.2841c0.64807,-0.32716 1.32192,-0.49074 2.02155,-0.49074v0c0.58179,0 1.0568,0.08997 1.42502,0.26991c0.37559,0.17994 0.67385,0.42803 0.89478,0.74429c0.22093,0.32171 0.37191,0.69794 0.45291,1.1287c0.08101,0.43076 0.12151,0.89424 0.12151,1.39043v0c0,1.47767 -0.10678,2.95262 -0.32035,4.42484c-0.20621,1.47222 -0.43819,2.82721 -0.69594,4.06496v0l-5.22509,0.08179c0.04419,-0.22356 0.11783,-0.64069 0.22093,-1.25139c0.1031,-0.6107 0.21357,-1.2732 0.3314,-1.9875c0.11783,-0.7143 0.22462,-1.40406 0.32035,-2.06929c0.08837,-0.65977 0.13256,-1.14506 0.13256,-1.45586v0c0,-0.23992 -0.02946,-0.45802 -0.08837,-0.65432c-0.05892,-0.20175 -0.15834,-0.30262 -0.29826,-0.30262v0c-0.20621,0 -0.52288,0.33261 -0.95002,0.99784c-0.4345,0.65977 -0.91688,1.62762 -1.44712,2.90355v0c-0.13992,0.32716 -0.2909,0.69249 -0.45291,1.09599c-0.16202,0.4035 -0.31299,0.78518 -0.45291,1.14506c-0.13992,0.36533 -0.25776,0.68158 -0.35349,0.94876c-0.09574,0.26718 -0.14361,0.42531 -0.14361,0.47438v0l-4.66171,0.10633c0,-0.02181 0.00368,-0.09542 0.01105,-0.22083c0.01473,-0.13086 0.02578,-0.27809 0.03314,-0.44167c0.01473,-0.16358 0.03314,-0.32989 0.05523,-0.49892c0.02209,-0.17449 0.03314,-0.31353 0.03314,-0.41713v0c0.04419,-0.6216 0.11415,-1.41224 0.20989,-2.37191c0.09574,-0.96512 0.14361,-1.93842 0.14361,-2.9199v0c0,-0.32716 -0.03682,-0.54527 -0.11047,-0.65432c-0.06628,-0.11451 -0.14729,-0.17176 -0.24303,-0.17176v0c-0.13992,0 -0.32404,0.13359 -0.55234,0.40077c-0.23566,0.26718 -0.49342,0.61615 -0.77327,1.04691c-0.27985,0.43076 -0.5597,0.9215 -0.83955,1.47222c-0.27249,0.55072 -0.52656,1.10144 -0.76222,1.65216v0c-0.11783,0.25628 -0.2283,0.53164 -0.3314,0.82608c-0.1031,0.28899 -0.19516,0.57526 -0.27617,0.8588c-0.08101,0.28899 -0.14729,0.55617 -0.19884,0.80154c-0.04419,0.25082 -0.06628,0.45257 -0.06628,0.60525v0l-4.56229,0.05725c0,-0.01636 -0.00736,-0.17721 -0.02209,-0.48256c-0.00736,-0.2999 -0.02946,-0.68704 -0.06628,-1.16142c-0.03682,-0.46893 -0.08469,-1.00602 -0.14361,-1.61126c-0.05892,-0.59979 -0.12151,-1.22685 -0.18779,-1.88117v0c-0.18411,-1.48313 -0.40136,-2.74814 -0.65176,-3.79506c-0.24303,-1.05236 -0.53761,-2.04202 -0.88374,-2.96898zM192.82091,195.23694v0c0,-0.34352 0.10678,-0.71157 0.32035,-1.10417c0.20621,-0.39804 0.48974,-0.7661 0.8506,-1.10417c0.36086,-0.33261 0.78432,-0.60797 1.27037,-0.82608c0.48605,-0.21265 1.00893,-0.31898 1.56863,-0.31898v0c0.32404,0 0.63703,0.02999 0.93897,0.08997c0.30194,0.05998 0.57443,0.16358 0.81746,0.3108c0.25039,0.14722 0.44923,0.34624 0.59652,0.59707c0.15465,0.24537 0.23198,0.55072 0.23198,0.91605v0c0,0.39259 -0.11783,0.78791 -0.35349,1.18596c-0.23566,0.39259 -0.53761,0.74429 -0.90583,1.05509c-0.37559,0.3108 -0.79904,0.56435 -1.27037,0.76065c-0.47869,0.20175 -0.96106,0.30262 -1.44712,0.30262v0c-0.7659,0 -1.39557,-0.17449 -1.88899,-0.52346c-0.48605,-0.34352 -0.72908,-0.79064 -0.72908,-1.34136zM193.45057,198.18139h5.12567c-0.04419,1.56492 -0.08469,2.91172 -0.12151,4.04043c-0.03682,1.1287 -0.05523,1.88935 -0.05523,2.28194v0c0,1.2214 0,2.27649 0,3.16527c0,0.88878 0.01105,1.69305 0.03314,2.41281v0l-4.98206,0.10633c-0.04419,-0.84516 -0.07364,-1.83482 -0.08837,-2.96898c-0.01473,-1.13961 -0.02209,-2.22469 -0.02209,-3.25524v0c0,-1.13416 0.00736,-2.17561 0.02209,-3.12438c0.01473,-0.94331 0.04419,-1.82937 0.08837,-2.65818zM215.65444,199.24466l-2.64016,3.32885c-0.5597,-0.34352 -1.04207,-0.58071 -1.44712,-0.71157c-0.41241,-0.13086 -0.8506,-0.1963 -1.31456,-0.1963v0c-0.46396,0 -0.88005,0.08997 -1.24828,0.26991c-0.37559,0.18539 -0.69594,0.42258 -0.96106,0.71157c-0.27249,0.29444 -0.48237,0.63524 -0.62966,1.02238c-0.15465,0.38714 -0.23198,0.77701 -0.23198,1.1696v0c0,0.63796 0.19516,1.09871 0.58548,1.38225c0.38295,0.28354 0.90951,0.42531 1.57968,0.42531v0c0.34613,0 0.70699,-0.03272 1.08258,-0.09815c0.36822,-0.07088 0.71804,-0.15813 1.04944,-0.26173c0.32404,-0.1036 0.61493,-0.20175 0.87269,-0.29444c0.25039,-0.0927 0.4345,-0.16631 0.55234,-0.22083v0l1.3256,3.14892c-0.18411,0.1036 -0.47501,0.23174 -0.87269,0.38441c-0.39768,0.15813 -0.86901,0.3108 -1.41398,0.45802c-0.54497,0.14722 -1.13781,0.26991 -1.77852,0.36806c-0.64071,0.1036 -1.29615,0.1554 -1.96631,0.1554v0c-0.81746,0 -1.60177,-0.08452 -2.35295,-0.25355c-0.75854,-0.17449 -1.43239,-0.44985 -2.02155,-0.82608c-0.59652,-0.38169 -1.07521,-0.87788 -1.43607,-1.48858c-0.35349,-0.6107 -0.53024,-1.35499 -0.53024,-2.23287v0c0,-1.28683 0.27617,-2.40463 0.8285,-3.35339c0.5597,-0.94876 1.25932,-1.73122 2.09887,-2.34737c0.83218,-0.6216 1.73065,-1.08781 2.6954,-1.39861c0.96475,-0.30535 1.85585,-0.45802 2.6733,-0.45802v0c1.3477,0 2.45237,0.14177 3.31401,0.42531c0.85428,0.28354 1.58336,0.58071 2.18725,0.89151zM216.52713,189.89606l5.23614,-0.17994c0.06628,0.518 0.12888,1.05509 0.18779,1.61126c0.05892,0.56162 0.11783,1.10417 0.17675,1.62762c0.05892,0.52346 0.1031,1.00874 0.13256,1.45586c0.03682,0.44712 0.05523,0.80972 0.05523,1.08781v0c0.02209,0.43076 0.01841,0.95422 -0.01105,1.57037c-0.03682,0.6216 -0.09574,1.29501 -0.17675,2.02021c-0.08101,0.71975 -0.19148,1.47222 -0.3314,2.2574c-0.13992,0.77973 -0.30194,1.55674 -0.48605,2.33102v0l0.13256,0.03272c0.49342,-0.82881 1.02734,-1.58673 1.60177,-2.27376c0.58179,-0.68704 1.17463,-1.2732 1.77852,-1.75849c0.61125,-0.47983 1.2225,-0.85334 1.83375,-1.12052c0.61862,-0.26718 1.20777,-0.40077 1.76747,-0.40077v0c0.87637,0 1.57231,0.16358 2.08783,0.49074c0.50815,0.32716 0.8911,0.70885 1.14886,1.14506c0.25776,0.44167 0.41977,0.88606 0.48605,1.33318c0.07364,0.44712 0.11047,0.79064 0.11047,1.03055v0c0,0.43076 -0.04787,1.00329 -0.14361,1.71759c-0.09574,0.7143 -0.20621,1.45586 -0.3314,2.22469c-0.1252,0.76337 -0.26512,1.50766 -0.41977,2.23287c-0.14729,0.71975 -0.27985,1.31955 -0.39768,1.79938v0l-5.22509,-0.04907c0.13256,-0.63796 0.28721,-1.31409 0.46396,-2.02839c0.17675,-0.7143 0.33877,-1.40134 0.48605,-2.06111c0.15465,-0.66523 0.27617,-1.2732 0.36454,-1.82392c0.09574,-0.55072 0.14361,-0.97057 0.14361,-1.25957v0c0,-0.17449 -0.0405,-0.31625 -0.12151,-0.42531c-0.08101,-0.11451 -0.19148,-0.17176 -0.3314,-0.17176v0c-0.23566,0 -0.4971,0.16085 -0.78432,0.48256c-0.28721,0.31625 -0.58916,0.72248 -0.90583,1.21867c-0.31667,0.50165 -0.61493,1.05782 -0.89478,1.66852c-0.27249,0.6107 -0.53392,1.20504 -0.78432,1.78302c-0.24303,0.57798 -0.43819,1.10144 -0.58548,1.57037c-0.15465,0.47438 -0.24303,0.82335 -0.26512,1.04691v0l-4.63962,0.10633c0,-0.03817 -0.00368,-0.27536 -0.01105,-0.71157c-0.01473,-0.44167 -0.02209,-0.98421 -0.02209,-1.62762c0,-0.64341 -0.00368,-1.35226 -0.01105,-2.12654c-0.01473,-0.77428 -0.02209,-1.50766 -0.02209,-2.20015v0c0,-2.42644 -0.09942,-4.73564 -0.29826,-6.92762c-0.19884,-2.19197 -0.53024,-4.42484 -0.9942,-6.6986zM243.79039,197.82151v0c1.53917,0 2.72485,0.28081 3.55704,0.84244c0.83955,0.55617 1.25932,1.3768 1.25932,2.46188v0c0,0.65432 -0.12151,1.28683 -0.36454,1.89753c-0.24303,0.6107 -0.47133,1.08781 -0.6849,1.43133v0l-7.60013,0.87515c0,0.2072 0.01105,0.38987 0.03314,0.54799c0.02946,0.15267 0.08837,0.29717 0.17675,0.43349v0c0.18411,0.32716 0.64807,0.49074 1.39188,0.49074v0c0.72172,0 1.4103,-0.06816 2.06573,-0.20448c0.64807,-0.13632 1.32192,-0.31625 2.02155,-0.53981v0l1.56863,2.86265c-0.13992,0.07088 -0.41977,0.17994 -0.83955,0.32716c-0.41977,0.14177 -0.92056,0.28627 -1.50235,0.43349c-0.58179,0.14722 -1.20777,0.27263 -1.87794,0.37623c-0.67753,0.1036 -1.34033,0.1554 -1.98841,0.1554v0c-0.7659,0 -1.52813,-0.07634 -2.28667,-0.22901c-0.75118,-0.15813 -1.42502,-0.4144 -2.02155,-0.76883c-0.58916,-0.34897 -1.07153,-0.8179 -1.44712,-1.40679c-0.36822,-0.58344 -0.55234,-1.30591 -0.55234,-2.16744v0c0,-0.99784 0.21357,-1.96569 0.64071,-2.90355c0.42714,-0.93786 1.04207,-1.77212 1.8448,-2.50277c0.80273,-0.73066 1.76379,-1.31682 2.88319,-1.75849c1.11203,-0.43621 2.35295,-0.65432 3.72274,-0.65432zM240.48743,202.33632l3.20354,-0.49074c0.11783,-0.13632 0.18779,-0.259 0.20989,-0.36806c0.02209,-0.11451 0.03314,-0.21538 0.03314,-0.30262v0c0,-0.13632 -0.05892,-0.25082 -0.17675,-0.34352c-0.11783,-0.09815 -0.30194,-0.14722 -0.55234,-0.14722v0c-0.60389,0 -1.12676,0.16085 -1.56863,0.48256c-0.44187,0.31625 -0.82482,0.70612 -1.14886,1.1696zM249.47944,198.67213l5.15881,-0.98148l1.66805,5.80709c0.11783,0.38169 0.2283,0.78791 0.3314,1.21867c0.11047,0.43076 0.20989,0.82608 0.29826,1.18596v0c0.09574,0.44712 0.19148,0.88606 0.28721,1.31682v0h0.13256c0.62598,-0.87788 1.08994,-1.81301 1.39188,-2.8054c0.30194,-0.98693 0.45291,-1.97114 0.45291,-2.95262v0c0,-0.44712 -0.03314,-0.88061 -0.09942,-1.30046c-0.07364,-0.42531 -0.20252,-0.86152 -0.38663,-1.30864v0l5.15881,-0.98148c0.13992,0.17449 0.28721,0.46348 0.44187,0.86697c0.14729,0.4035 0.22093,0.82063 0.22093,1.25139v0c0,1.68487 -0.4971,3.38338 -1.4913,5.09552c-1.00157,1.71214 -2.47814,3.37793 -4.42973,4.99737v0h-4.36345z"/></g></g></g>
	  </g>
</svg>
